<svg width="310" height="97" viewBox="0 0 310 97" fill="none" xmlns="http://www.w3.org/2000/svg">
<path d="M0 11C0 4.92487 4.92487 0 11 0H61C67.0751 0 72 4.92487 72 11V61C72 67.0751 67.0751 72 61 72H11C4.92487 72 0 67.0751 0 61V11Z" fill="#FDC230"/>
<path fill-rule="evenodd" clip-rule="evenodd" d="M25 21V65H69V21H25ZM22 7C15.9249 7 11 11.9249 11 18V68C11 74.0751 15.9249 79 22 79H72C78.0751 79 83 74.0751 83 68V18C83 11.9249 78.0751 7 72 7H22Z" fill="#3D3939"/>
<path fill-rule="evenodd" clip-rule="evenodd" d="M66.6057 96.6057L37 67L46.8995 57.1005L76.5052 86.7062L66.6057 96.6057Z" fill="#3D3939"/>
<path d="M159.096 22.4016H141V16.2972H184.415V22.4016H166.319V70.7791H159.096V22.4016Z" fill="#3D3939"/>
<path d="M190.743 16.2972H197.966V70.7791H190.743V16.2972Z" fill="#3D3939"/>
<path d="M248.285 32.7028C247.474 28.8367 245.674 25.9371 242.886 24.004C240.149 22.0709 236.88 21.1044 233.078 21.1044C229.834 21.1044 227.046 21.7149 224.714 22.9357C222.433 24.1566 220.532 25.8099 219.012 27.8956C217.542 29.9304 216.452 32.2704 215.742 34.9157C215.032 37.5609 214.678 40.3079 214.678 43.1566C214.678 46.2597 215.032 49.2102 215.742 52.008C216.452 54.755 217.542 57.1714 219.012 59.257C220.532 61.2918 222.458 62.9197 224.79 64.1406C227.122 65.3614 229.91 65.9719 233.154 65.9719C235.536 65.9719 237.64 65.5904 239.465 64.8273C241.34 64.0134 242.937 62.9197 244.255 61.5462C245.623 60.1218 246.688 58.4431 247.448 56.51C248.209 54.577 248.665 52.4913 248.817 50.253H256.04C255.331 57.1205 252.973 62.4618 248.969 66.2771C244.965 70.0924 239.49 72 232.546 72C228.338 72 224.663 71.2878 221.521 69.8635C218.378 68.3882 215.767 66.3788 213.689 63.8353C211.611 61.2918 210.04 58.2905 208.975 54.8313C207.961 51.3722 207.454 47.6586 207.454 43.6908C207.454 39.7229 208.012 36.0094 209.127 32.5502C210.242 29.0402 211.864 25.9879 213.993 23.3936C216.173 20.7992 218.859 18.7644 222.053 17.2892C225.297 15.7631 228.997 15 233.154 15C235.993 15 238.679 15.3815 241.214 16.1446C243.748 16.9076 246.004 18.0268 247.981 19.502C249.957 20.9772 251.605 22.834 252.923 25.0723C254.241 27.2597 255.102 29.8032 255.508 32.7028H248.285Z" fill="#3D3939"/>
<path d="M264.988 16.2972H272.211V43.4618L299.735 16.2972H309.088L286.201 38.2731L310 70.7791H300.876L281.259 43.2329L272.211 51.7028V70.7791H264.988V16.2972Z" fill="#3D3939"/>
<path d="M101.785 40.7857H116.888C120.049 40.7857 122.42 40.1471 124 38.8697C125.58 37.5924 126.371 35.5168 126.371 32.6429C126.371 29.8754 125.58 27.8796 124 26.6555C122.42 25.3782 120.049 24.7395 116.888 24.7395H101.785V40.7857ZM88 15H121.805C124.615 15 127.132 15.4258 129.356 16.2773C131.639 17.0756 133.571 18.1933 135.151 19.6303C136.79 21.0672 138.02 22.7437 138.839 24.6597C139.717 26.5224 140.156 28.5448 140.156 30.7269C140.156 34.0798 139.366 36.9804 137.785 39.4286C136.263 41.8768 133.746 43.7395 130.234 45.0168V45.1765C131.932 45.6022 133.337 46.2675 134.449 47.1723C135.561 48.0238 136.468 49.0616 137.171 50.2857C137.873 51.4566 138.371 52.7605 138.663 54.1975C139.015 55.6345 139.249 57.0714 139.366 58.5084C139.424 59.4132 139.483 60.4776 139.541 61.7017C139.6 62.9258 139.688 64.1765 139.805 65.4538C139.98 66.7311 140.215 67.9552 140.507 69.1261C140.859 70.2437 141.356 71.2017 142 72H128.215C127.454 70.1905 126.985 68.035 126.81 65.5336C126.634 63.0322 126.371 60.6373 126.02 58.3487C125.551 55.3684 124.556 53.1863 123.034 51.8025C121.512 50.4188 119.024 49.7269 115.571 49.7269H101.785V72H88V15Z" fill="#3D3939"/>
</svg>
